<svg width="1108" height="116" viewBox="0 0 1108 116" fill="none" xmlns="http://www.w3.org/2000/svg">
<path d="M35.125 87.125C26.75 87.125 19.25 84.125 14.125 79.25L6.75 86.625H4L1 59.875H6.5C14.625 74.625 23 80.25 33.375 80.25C42.5 80.25 49.125 74.875 49.125 66.625C49.125 60.875 46.125 55.25 33.125 50.5L23 46.75C9.375 41.75 3.75 34.625 3.75 24.625C3.75 10.875 14.875 3 28 3C35.25 3 41 5.375 45.25 9.75L52.75 2.625H55.5L57.125 27.5H51.625C46.5 15.25 40.125 9.875 30 9.875C20.75 9.875 14.625 14.375 14.625 22.25C14.625 28 17.75 33 28 36.5L38.5 40.125C53.125 45.125 60.5 52 60.5 63.75C60.5 78.125 49 87.125 35.125 87.125Z" fill="#202021"/>
<path d="M98.4287 87.25C83.3037 87.25 70.9287 75 70.9287 57.5C70.9287 40.875 83.1787 27.75 98.4287 27.75C113.304 27.75 125.679 39.875 125.679 57.5C125.679 74.125 113.554 87.25 98.4287 87.25ZM82.4287 55.125C82.4287 71.375 89.3037 81.125 99.8037 81.125C108.804 81.125 114.304 73 114.304 59.875C114.304 43.625 107.429 33.875 97.1787 33.875C88.0537 33.875 82.4287 41.75 82.4287 55.125Z" fill="#202021"/>
<path d="M170.53 80.875C177.28 80.875 179.03 79.75 179.03 75.5V48.5C179.03 40.5 175.155 36.125 167.03 36.125C161.78 36.125 157.78 38.125 153.03 42.75V75.25C153.03 79.75 154.78 80.875 161.78 80.875V85.875H133.53V80.875C140.78 80.875 142.655 79.5 142.655 72.75V40.875L134.155 39.125V35.375L149.03 28.625H153.03V38.5C159.155 31.75 163.78 27.625 172.28 27.625C182.655 27.625 189.405 34.125 189.405 47V75.25C189.405 79.75 191.155 80.875 198.28 80.875V85.875H170.53V80.875Z" fill="#202021"/>
<path d="M223.34 114.625C209.34 114.625 199.715 109.25 199.715 101C199.715 96.25 203.09 92 214.465 85.625C208.09 83.375 206.09 79.75 206.09 76.5C206.09 72.875 208.59 70.25 216.84 64.375C209.715 61.125 205.34 54.625 205.34 47.25C205.34 36.25 214.965 27.625 227.59 27.625C235.09 27.625 241.34 30.625 245.34 35.375L255.715 27.625H258.965V38.375L248.09 40.125C249.09 42.375 249.59 44.875 249.59 47.5C249.59 59 239.84 67.25 226.965 66.75C224.715 66.625 222.59 66.375 220.59 65.75C217.215 68.375 216.465 70.25 216.465 71.875C216.465 76 221.34 77.375 228.59 78.25L240.465 79.625C253.715 81.125 257.965 86.625 257.965 92.875C257.965 105 242.215 114.625 223.34 114.625ZM210.09 97.25C210.09 104.625 217.59 108.25 228.09 108.25C239.84 108.25 247.465 103.625 247.465 96.75C247.465 91.5 242.965 89.75 232.965 88.625L223.215 87.5L218.465 86.75C212.465 90.5 210.09 93.375 210.09 97.25ZM216.59 46.125C216.59 55.5 220.84 61.75 228.34 61.75C234.965 61.75 238.34 56.875 238.34 48.5C238.34 38.625 233.59 32.75 226.59 32.75C220.34 32.75 216.59 37.375 216.59 46.125Z" fill="#202021"/>
<path d="M307.554 80.25C316.304 80.25 319.304 77.875 319.304 71.5V12.125H306.054C297.554 12.125 295.054 16 293.304 25.75H287.554L288.429 4.625H362.054L362.929 25.75H357.179C355.429 16 352.929 12.125 344.429 12.125H330.554V71.5C330.554 77.875 333.554 80.25 342.304 80.25V85.875H307.554V80.25Z" fill="#202021"/>
<path d="M385.503 87.125C368.753 87.125 359.628 74 359.628 57.75C359.628 40.625 371.128 27.625 386.253 27.625C399.253 27.625 408.378 36.5 408.378 51.875V52H370.253V53.75C370.253 67.125 377.003 77.125 390.253 77.125C397.128 77.125 402.378 74 406.503 67.625L409.753 70.25C404.003 81.5 395.878 87.125 385.503 87.125ZM370.628 46.75H396.003C395.503 37.625 391.003 33 384.253 33C377.253 33 372.128 38.25 370.628 46.75Z" fill="#202021"/>
<path d="M456.603 87.25C450.978 87.25 447.853 83 447.103 77.625C441.728 84.625 436.853 87.25 431.353 87.25C423.478 87.25 418.603 81.625 418.603 74.5C418.603 67.125 423.228 62.75 432.228 59.125L446.978 53.375V48.5C446.978 40.875 443.353 36.375 436.228 36.375C431.228 36.375 426.728 38.875 421.853 45.5L417.728 42.75C424.728 31.375 432.478 27.625 440.103 27.625C450.603 27.625 457.353 34.875 457.353 47V74.25C457.353 77.125 458.353 79.125 461.603 79.125C463.478 79.125 464.853 78.375 466.978 76.375L467.728 79.5C463.353 85.375 460.353 87.25 456.603 87.25ZM428.853 71.625C428.853 76.625 432.603 78.75 436.478 78.75C439.728 78.75 443.353 77.375 446.978 74.125V60L437.603 62.125C431.603 63.625 428.853 67 428.853 71.625Z" fill="#202021"/>
<path d="M526.593 87.75C510.968 87.75 501.343 76.375 501.343 64.375C501.343 51.75 509.593 43.125 524.843 38.625C519.593 33.25 517.968 27.875 517.968 22.75C517.968 11.375 527.468 5.25 537.593 5.25C548.218 5.25 555.343 11.875 555.343 20.25C555.343 27.875 550.218 33.5 539.343 37.75C547.968 45.625 553.718 51.625 558.843 57.625L563.218 51.5C567.093 45.5 571.468 38.75 571.468 35.875C571.468 33.875 570.218 33.125 568.093 33.125H562.593V27.875H594.843V33.125C588.843 33.125 582.968 35.25 576.343 44.125C571.218 51 566.843 57.125 562.718 62.5L565.093 65.5C570.593 72.75 574.843 77 579.843 77C584.093 77 588.343 74.875 591.343 70.75L594.843 73.625C588.718 83.125 582.093 87.125 574.218 87.125C566.218 87.125 561.718 80.875 555.218 71.875C546.218 82.25 538.843 87.75 526.593 87.75ZM512.843 61.75C512.843 71.75 521.093 78 530.593 78C538.093 78 544.468 75.375 551.718 67C543.593 56.5 537.468 50.375 527.968 41.625C517.093 46.25 512.843 52.75 512.843 61.75ZM527.968 20.75C527.968 26.5 531.218 30.25 536.218 34.875C544.468 30.5 546.843 26.25 546.843 20.875C546.843 15 542.968 11.25 537.343 11.25C531.218 11.25 527.968 15.25 527.968 20.75Z" fill="#202021"/>
<path d="M665.953 87.125C644.703 87.125 628.203 71.5 628.203 46.625C628.203 22.375 644.578 3.25 667.578 3.25C676.078 3.25 681.578 6.125 686.328 10.375L694.328 2.625H697.078L699.578 30.625H693.828C687.078 15.625 679.703 10.125 668.453 10.125C650.578 10.125 640.078 25.5 640.078 43.125C640.078 63.125 652.078 77.625 670.078 77.625C681.453 77.625 690.578 72.125 697.703 59.875L701.703 63.125C693.828 80.125 680.703 87.125 665.953 87.125Z" fill="#202021"/>
<path d="M736.211 87.125C719.461 87.125 710.336 74 710.336 57.75C710.336 40.625 721.836 27.625 736.961 27.625C749.961 27.625 759.086 36.5 759.086 51.875V52H720.961V53.75C720.961 67.125 727.711 77.125 740.961 77.125C747.836 77.125 753.086 74 757.211 67.625L760.461 70.25C754.711 81.5 746.586 87.125 736.211 87.125ZM721.336 46.75H746.711C746.211 37.625 741.711 33 734.961 33C727.961 33 722.836 38.25 721.336 46.75Z" fill="#202021"/>
<path d="M767.319 80.875C774.569 80.875 776.444 79.5 776.444 72.75V40.875L767.944 39.125V35.375L782.819 28.625H786.819V39.375C794.694 30.625 798.819 28.25 803.069 28.25C806.694 28.25 809.819 30.5 809.819 34.375C809.819 38 807.444 40.375 804.569 42.25L795.569 37.125C792.694 38.375 789.944 40.375 786.819 43.75V74C786.819 79.5 788.569 80.875 795.569 80.875H797.444V85.875H767.319V80.875Z" fill="#202021"/>
<path d="M853.209 87.25C847.584 87.25 844.459 83 843.709 77.625C838.334 84.625 833.459 87.25 827.959 87.25C820.084 87.25 815.209 81.625 815.209 74.5C815.209 67.125 819.834 62.75 828.834 59.125L843.584 53.375V48.5C843.584 40.875 839.959 36.375 832.834 36.375C827.834 36.375 823.334 38.875 818.459 45.5L814.334 42.75C821.334 31.375 829.084 27.625 836.709 27.625C847.209 27.625 853.959 34.875 853.959 47V74.25C853.959 77.125 854.959 79.125 858.209 79.125C860.084 79.125 861.459 78.375 863.584 76.375L864.334 79.5C859.959 85.375 856.959 87.25 853.209 87.25ZM825.459 71.625C825.459 76.625 829.209 78.75 833.084 78.75C836.334 78.75 839.959 77.375 843.584 74.125V60L834.209 62.125C828.209 63.625 825.459 67 825.459 71.625Z" fill="#202021"/>
<path d="M938.626 80.875C944.126 80.875 945.876 79.75 945.876 75.5V47.5C945.876 40 942.001 35.875 935.126 35.875C931.001 35.875 927.001 37.75 922.126 42.125C922.376 43.625 922.501 45.25 922.501 46.875V75.25C922.501 79.75 924.251 80.875 930.126 80.875V85.875H904.876V80.875C910.376 80.875 912.126 79.75 912.126 75.5V47.5C912.126 40 908.251 35.875 901.376 35.875C897.376 35.875 893.376 37.75 888.626 41.75V75.25C888.626 79.75 890.376 80.875 896.126 80.875V85.875H869.126V80.875C876.376 80.875 878.251 79.5 878.251 72.75V41L869.751 39.25V35.5L884.626 28.625H888.626V37.5C894.751 31.125 899.376 27.625 906.626 27.625C913.376 27.625 918.751 31.5 921.126 38.375C927.876 31.5 932.626 27.625 940.376 27.625C949.501 27.625 956.251 33.875 956.251 46.25V75.25C956.251 79.75 958.001 80.875 965.126 80.875V85.875H938.626V80.875Z" fill="#202021"/>
<path d="M970.811 80.875C978.061 80.875 979.936 79.5 979.936 72.75V40.875L971.436 39.125V35.375L986.311 28.625H990.311V75.25C990.311 79.75 992.061 80.875 999.061 80.875V85.875H970.811V80.875ZM978.686 7.75C978.686 3.875 981.561 1 985.436 1C989.311 1 992.311 3.875 992.311 7.75C992.311 11.625 989.311 14.375 985.436 14.375C981.561 14.375 978.686 11.625 978.686 7.75Z" fill="#202021"/>
<path d="M1031.48 87.25C1016.48 87.25 1006.35 74.5 1006.35 59.625C1006.35 42 1020.23 27.875 1037.23 27.875C1046.73 27.875 1052.73 32 1052.73 37C1052.73 40.125 1049.98 42.75 1045.98 43.375L1035.23 33C1025.1 34.25 1016.85 42.875 1016.85 56.125C1016.85 67.25 1022.6 77.5 1035.85 77.5C1042.85 77.5 1048.1 74.75 1052.48 67.25L1055.6 69.875C1050.1 82.375 1041.23 87.25 1031.48 87.25Z" fill="#202021"/>
<path d="M1088.26 87.25C1082.26 87.25 1076.88 85 1072.76 81.25L1066.26 86.75H1064.01L1062.63 66.125H1067.63C1072.38 76.625 1078.88 81.125 1087.01 81.125C1093.13 81.125 1097.51 78.125 1097.51 72.75C1097.51 69.375 1095.76 66 1089.63 63.625L1079.51 59.75C1069.76 56 1065.01 51.25 1065.01 43.625C1065.01 33.75 1073.26 27.5 1083.26 27.5C1088.63 27.5 1092.76 29.375 1096.13 33.125L1102.63 27.875H1104.76V46.375H1099.76C1095.63 36.125 1090.63 33.625 1084.88 33.625C1078.38 33.625 1074.63 36.875 1074.63 41.5C1074.63 45 1076.76 47.625 1082.26 49.625L1093.38 53.625C1102.38 56.875 1107.26 62.125 1107.26 70C1107.26 79.75 1099.76 87.25 1088.26 87.25Z" fill="#202021"/>
</svg>
